<svg xmlns="http://www.w3.org/2000/svg" fill="currentColor" viewBox="0 0 512.001 512.001"><path d="M191.134,106.044c-16.732,0-30.345,13.613-30.345,30.344c0,16.732,13.613,30.345,30.345,30.345s30.345-13.613,30.345-30.345C221.479,119.657,207.866,106.044,191.134,106.044z M191.135,145.62c-5.09,0-9.232-4.141-9.232-9.232s4.141-9.231,9.232-9.231c5.09,0,9.232,4.14,9.232,9.231S196.225,145.62,191.135,145.62z"></path><path d="M320.866,106.044c-16.731,0-30.344,13.613-30.344,30.344c0,16.732,13.613,30.345,30.344,30.345c16.732,0,30.344-13.613,30.344-30.345C351.21,119.657,337.597,106.044,320.866,106.044z M320.866,145.62c-5.089,0-9.231-4.141-9.231-9.232s4.141-9.231,9.231-9.231s9.231,4.14,9.231,9.231S325.956,145.62,320.866,145.62z"></path></svg>
