<svg xmlns="http://www.w3.org/2000/svg" fill="currentColor" viewBox="0 0 512.001 512.001"><path d="M328.105,287.731c-5.806-0.466-10.902,3.863-11.371,9.674c-0.095,1.183-0.197,2.362-0.302,3.536c-0.521,5.807,3.763,10.937,9.571,11.458c0.321,0.029,0.639,0.043,0.955,0.043c5.403,0,10.009-4.128,10.502-9.614c0.111-1.238,0.217-2.48,0.319-3.728C338.247,293.291,333.916,288.2,328.105,287.731z"></path><path d="M392.792,433.058h-75.499c44.079-32.422,72.577-98.13,72.577-171.147c0-21.141-2.356-41.867-7.001-61.673c8.907-18.778,13.421-38.926,13.421-59.949c0-10.726-1.228-21.379-3.624-31.701c-0.087-0.666-0.233-1.333-0.454-1.993c-0.024-0.072-0.05-0.146-0.074-0.215c-7.387-29.755-24.694-56.69-48.813-75.895C318.279,10.541,288.083,0,256,0c-32.071,0-62.26,10.536-87.303,30.47c-24.224,19.282-41.587,46.353-48.92,76.231c-0.052,0.186-0.096,0.372-0.137,0.558c-2.603,10.718-3.928,21.828-3.928,33.03c0,21.026,4.515,41.172,13.421,59.947c-4.645,19.808-7.001,40.535-7.001,61.675c0,73.018,28.498,138.725,72.578,171.147h-75.5c-5.83,0-10.557,4.726-10.557,10.557c0,5.831,4.726,10.557,10.557,10.557h79.632l-7.151,19.844c-3.132,8.677-1.836,18.366,3.467,25.918c5.305,7.555,13.982,12.066,23.212,12.066H256h37.63c9.23,0,17.907-4.511,23.212-12.066c5.303-7.552,6.599-17.241,3.468-25.914l-7.153-19.849h79.633c5.829,0,10.557-4.726,10.557-10.557C403.348,437.785,398.623,433.058,392.792,433.058z M256,21.113c34.195,0,65.477,14.369,87.425,38.031c-7.18-2.258-14.769-3.47-22.559-3.47c-20.141,0-39.082,7.841-53.341,22.088c-4.496,4.5-8.35,9.469-11.525,14.794c-3.176-5.327-7.032-10.298-11.531-14.802c-14.253-14.239-33.194-22.081-53.335-22.081c-7.791,0-15.38,1.212-22.561,3.471C190.523,35.483,221.806,21.113,256,21.113z M140.093,112.519c7.79-21.391,28.232-35.731,51.042-35.731c14.505,0,28.147,5.648,38.405,15.896c10.256,10.266,15.904,23.907,15.904,38.413v45.531c0,5.831,4.726,10.557,10.557,10.557c5.829,0,10.557-4.726,10.557-10.557v-45.531c0-14.506,5.649-28.147,15.897-38.405c10.266-10.256,23.907-15.904,38.413-15.904c22.828,0,43.274,14.358,51.052,35.778c2.157,9.004,3.257,18.327,3.257,27.724c0,19-4.331,37.147-12.874,53.938c-9.168,18.034-22.897,33.561-39.707,44.902c-19.696,13.295-42.724,20.323-66.594,20.323c-23.87,0-46.897-7.028-66.596-20.325c-16.798-11.335-30.521-26.85-39.691-44.874c-0.056-0.107-0.103-0.219-0.161-0.323c-8.443-16.707-12.728-34.751-12.728-53.641C136.825,130.867,137.927,121.534,140.093,112.519z M165.977,364.611c-14.871-29.854-22.733-65.367-22.733-102.7c0-11.858,0.828-23.555,2.413-35.005c7.81,9.933,16.953,18.807,27.159,26.334c-0.054,2.958-0.083,5.835-0.083,8.671c0,49.425,7.716,96.16,21.727,131.595c2.832,7.162,5.881,13.736,9.122,19.701C188.98,401.408,176.001,384.733,165.977,364.611z M245.444,490.887h-27.075c-3.399,0-5.281-2.158-5.933-3.086c-0.65-0.926-2.039-3.426-0.886-6.62l9.733-27.009h24.16V490.887z M299.564,487.801c-0.651,0.928-2.534,3.086-5.933,3.086h-27.074v-36.715h24.16l9.733,27.014C301.603,484.376,300.214,486.875,299.564,487.801z M308.469,413.164c11.243-20.664,20.056-48.428,25.418-81.678c0.929-5.755-2.984-11.174-8.741-12.103c-5.756-0.928-11.174,2.985-12.102,8.741c-9.845,61.039-33.054,104.187-56.483,104.929c-0.185,0.006-0.378,0.004-0.562,0.004c-0.184,0-0.376,0.002-0.605-0.005c-28.706-0.91-60.642-69.481-61.528-166.984c19.217,9.512,40.376,14.497,62.132,14.497c21.757,0,42.916-4.985,62.133-14.496c-0.016,1.69-0.038,3.375-0.073,5.042c-0.119,5.828,4.509,10.652,10.338,10.771c0.074,0.001,0.148,0.002,0.221,0.002c5.729,0,10.432-4.586,10.55-10.34c0.065-3.175,0.098-6.416,0.098-9.633c0-2.796-0.031-5.703-0.084-8.671c10.207-7.528,19.35-16.402,27.16-26.335c1.586,11.45,2.413,23.147,2.413,35.005c0,37.334-7.862,72.846-22.733,102.701C336.012,384.709,323.05,401.369,308.469,413.164z"></path></svg>
